<svg width="14" height="14" viewBox="0 0 14 14" fill="none" xmlns="http://www.w3.org/2000/svg">
<path d="M0.993089 12.2414C0.602564 12.6319 0.602564 13.2651 0.993089 13.6556C1.38361 14.0461 2.01678 14.0461 2.4073 13.6556L0.993089 12.2414ZM13.9583 1.69034C13.9583 1.13805 13.5106 0.690336 12.9583 0.690336L3.95835 0.690336C3.40606 0.690336 2.95835 1.13805 2.95835 1.69034C2.95835 2.24262 3.40606 2.69034 3.95835 2.69034H11.9583V10.6903C11.9583 11.2426 12.4061 11.6903 12.9583 11.6903C13.5106 11.6903 13.9583 11.2426 13.9583 10.6903L13.9583 1.69034ZM2.4073 13.6556L13.6655 2.39744L12.2512 0.983229L0.993089 12.2414L2.4073 13.6556Z" fill="#F35C37"/>
</svg>
