<svg width="38" height="38" viewBox="0 0 38 38" fill="none" xmlns="http://www.w3.org/2000/svg">
<path d="M19.4097 0.663574C15.7505 0.663574 12.1734 1.74367 9.13085 3.76728C6.08831 5.79088 3.71688 8.66711 2.31655 12.0323C0.916219 15.3974 0.549829 19.1003 1.26371 22.6727C1.9776 26.2452 3.73971 29.5265 6.32717 32.1019C8.91466 34.6775 12.2114 36.4316 15.8003 37.1424C19.3892 37.8529 23.1092 37.4882 26.49 36.0945C29.8708 34.7004 32.76 32.3399 34.7932 29.3114C36.8262 26.2829 37.9112 22.7222 37.9112 19.0798C37.9112 14.1955 35.9621 9.51128 32.4923 6.05758C29.0225 2.60385 24.3167 0.663574 19.4097 0.663574ZM30.7748 21.7713C30.7748 22.1396 29.1044 22.1922 29.1044 22.5605C29.1044 22.9289 30.7565 23.4287 30.7565 23.9366C30.7565 24.5574 27.3521 24.6494 27.3521 25.2704C27.3521 25.9334 29.9343 25.7281 29.9343 26.4464C29.9343 27.2935 23.4484 26.8989 23.4484 27.7802C23.4484 28.1169 24.2784 28.2564 25.3171 28.367C25.888 28.43 25.7636 28.7089 25.4387 28.8932C23.6229 29.9959 21.5369 30.5794 19.4097 30.5794C17.2826 30.5794 15.1966 29.9959 13.3808 28.8932C13.0584 28.6959 12.9315 28.417 13.5024 28.367C14.5412 28.2564 15.3738 28.1039 15.3738 27.7802C15.3738 26.8989 8.88499 27.2935 8.88499 26.4464C8.88499 25.7281 11.47 25.9202 11.47 25.2704C11.47 24.6494 8.06305 24.5574 8.06305 23.9366C8.06305 23.4287 9.71762 22.9368 9.71762 22.5605C9.71762 22.1843 8.04453 22.1422 8.04453 21.7713C8.04453 21.4003 9.26565 21.1609 9.26565 20.8978C9.26565 20.4006 7.84628 21.3056 7.84628 19.0798C7.84628 16.0272 9.06463 13.0995 11.2332 10.9409C13.4018 8.78236 16.3429 7.56967 19.4097 7.56967C22.4765 7.56967 25.4178 8.78236 27.5864 10.9409C29.7549 13.0995 30.9731 16.0272 30.9731 19.0798C30.9731 21.3056 29.5539 20.3953 29.5539 20.8978C29.5539 21.1609 30.7748 21.374 30.7748 21.7713Z" fill="#FFC844"/>
</svg>
